<svg xmlns="http://www.w3.org/2000/svg" viewBox="0 0 48 30" fill="none">
  <path d="M35.7 10.6C35.7 13.8 33.1 16.4 29.9 16.4H26.5C26.1 16.4 25.7 16.7 25.6 17.1L24.4 24.5C24.3 24.9 24 25.2 23.6 25.2H20.5C20 25.2 19.6 24.8 19.7 24.3L22.4 8.3C22.5 7.8 22.9 7.5 23.4 7.5H32.8C34.5 7.5 35.7 8.9 35.7 10.6Z" fill="#009CDE"/>
  <path d="M16.3 10.6C16.3 13.8 13.7 16.4 10.5 16.4H7.1C6.7 16.4 6.3 16.7 6.2 17.1L5 24.5C4.9 24.9 4.6 25.2 4.2 25.2H1.1C0.6 25.2 0.2 24.8 0.3 24.3L3 8.3C3.1 7.8 3.5 7.5 4 7.5H13.4C15.1 7.5 16.3 8.9 16.3 10.6Z" fill="#003087"/>
  <path d="M35.7 10.6C35.7 13.8 33.1 16.4 29.9 16.4H26.5C26.1 16.4 25.7 16.7 25.6 17.1L24.4 24.5C24.3 24.9 24 25.2 23.6 25.2H20.5C20 25.2 19.6 24.8 19.7 24.3L22.4 8.3C22.5 7.8 22.9 7.5 23.4 7.5H32.8C34.5 7.5 35.7 8.9 35.7 10.6Z" fill="#009CDE"/>
  <path d="M29.9 16.4C33.1 16.4 35.7 13.8 35.7 10.6C35.7 8.9 34.5 7.5 32.8 7.5H23.4C22.9 7.5 22.5 7.8 22.4 8.3L19.7 24.3C19.6 24.8 20 25.2 20.5 25.2H23.6C24 25.2 24.3 24.9 24.4 24.5L25.6 17.1C25.7 16.7 26.1 16.4 26.5 16.4H29.9Z" fill="#012169"/>
</svg> 