<svg xmlns="http://www.w3.org/2000/svg" viewBox="0 0 48 16" fill="none">
  <path d="M17.0574 15.6047H13.4574L15.8574 0.404663H19.4574L17.0574 15.6047Z" fill="#00579F"/>
  <path d="M34.6574 0.804663C33.8574 0.504663 32.6574 0.204663 31.0574 0.204663C27.0574 0.204663 24.2574 2.20466 24.2574 5.00466C24.2574 7.10466 26.2574 8.30466 27.8574 9.00466C29.4574 9.70466 30.0574 10.2047 30.0574 10.8047C30.0574 11.7047 28.8574 12.1047 27.6574 12.1047C26.0574 12.1047 25.2574 11.9047 23.8574 11.3047L23.4574 11.1047L22.8574 14.3047C23.8574 14.7047 25.6574 15.0047 27.4574 15.0047C31.6574 15.0047 34.4574 13.0047 34.4574 10.0047C34.4574 8.30466 33.4574 7.00466 31.0574 5.90466C29.6574 5.20466 28.6574 4.70466 28.6574 4.00466C28.6574 3.40466 29.4574 2.80466 31.0574 2.80466C32.4574 2.80466 33.4574 3.10466 34.2574 3.40466L34.6574 3.60466L35.2574 0.604663L34.6574 0.804663Z" fill="#00579F"/>
  <path d="M40.0574 10.4047C40.4574 9.30466 41.8574 5.60466 41.8574 5.60466C41.8574 5.60466 42.2574 4.60466 42.4574 4.00466L42.6574 5.40466C42.6574 5.40466 43.4574 9.50466 43.6574 10.4047C43.0574 10.4047 41.0574 10.4047 40.0574 10.4047ZM45.0574 0.404663H42.2574C41.2574 0.404663 40.6574 0.704663 40.2574 1.60466L34.2574 15.6047H38.4574C38.4574 15.6047 39.2574 13.6047 39.4574 13.0047C40.0574 13.0047 44.2574 13.0047 44.8574 13.0047C45.0574 13.8047 45.4574 15.6047 45.4574 15.6047H49.0574L45.0574 0.404663Z" fill="#00579F"/>
  <path d="M12.2574 0.404663L8.45742 10.8047L8.05742 8.80466C7.25742 6.40466 5.05742 3.80466 2.65742 2.40466L6.05742 15.6047L10.2574 15.6047L16.4574 0.404663H12.2574Z" fill="#00579F"/>
  <path d="M5.65742 0.404663H0.0574219L0.0574219 0.604663C4.45742 1.80466 7.25742 5.00466 8.05742 8.80466L6.85742 1.60466C6.65742 0.704663 6.25742 0.404663 5.65742 0.404663Z" fill="#FAA61A"/>
</svg> 